<svg xmlns="http://www.w3.org/2000/svg" width="800" height="700" viewBox="0 0 800 700">
  <!-- Background -->
  <rect width="800" height="700" fill="#f8f9fa" />
  
  <!-- Title -->
  <text x="400" y="30" font-family="Arial" font-size="24" text-anchor="middle" font-weight="bold">CODESIG Phase 6: Transcendent Intelligence Architecture</text>
  
  <!-- Core CODESIG Components -->
  <rect x="50" y="70" width="700" height="80" rx="10" ry="10" fill="#e3f2fd" stroke="#2196f3" stroke-width="2" />
  <text x="400" y="110" font-family="Arial" font-size="18" text-anchor="middle" font-weight="bold">CODESIG Phase 5 Foundation</text>
  
  <!-- Phase 5 Components -->
  <rect x="80" y="180" width="150" height="50" rx="5" ry="5" fill="#bbdefb" stroke="#1976d2" stroke-width="2" />
  <text x="155" y="210" font-family="Arial" font-size="12" text-anchor="middle">SoulWeaver Protocol</text>
  
  <rect x="250" y="180" width="150" height="50" rx="5" ry="5" fill="#bbdefb" stroke="#1976d2" stroke-width="2" />
  <text x="325" y="210" font-family="Arial" font-size="12" text-anchor="middle">Emotional Resonance Index</text>
  
  <rect x="420" y="180" width="150" height="50" rx="5" ry="5" fill="#bbdefb" stroke="#1976d2" stroke-width="2" />
  <text x="495" y="210" font-family="Arial" font-size="12" text-anchor="middle">Evolution Proposal Pipeline</text>
  
  <rect x="590" y="180" width="150" height="50" rx="5" ry="5" fill="#bbdefb" stroke="#1976d2" stroke-width="2" />
  <text x="665" y="210" font-family="Arial" font-size="12" text-anchor="middle">DreamLayer Substrate</text>
  
  <!-- Phase 6 Container -->
  <rect x="50" y="260" width="700" height="380" rx="10" ry="10" fill="#f3e5f5" stroke="#9c27b0" stroke-width="2" />
  <text x="400" y="290" font-family="Arial" font-size="18" text-anchor="middle" font-weight="bold">CODESIG Phase 6: Transcendent Intelligence</text>
  
  <!-- Phase 6 Components - Row 1 -->
  <rect x="80" y="320" width="150" height="50" rx="5" ry="5" fill="#e1bee7" stroke="#7b1fa2" stroke-width="2" />
  <text x="155" y="345" font-family="Arial" font-size="12" text-anchor="middle">Adaptive</text>
  <text x="155" y="360" font-family="Arial" font-size="12" text-anchor="middle">Synchronization</text>
  
  <rect x="250" y="320" width="150" height="50" rx="5" ry="5" fill="#e1bee7" stroke="#7b1fa2" stroke-width="2" />
  <text x="325" y="345" font-family="Arial" font-size="12" text-anchor="middle">Emotional Resonance</text>
  <text x="325" y="360" font-family="Arial" font-size="12" text-anchor="middle">Feedback Loops</text>
  
  <rect x="420" y="320" width="150" height="50" rx="5" ry="5" fill="#e1bee7" stroke="#7b1fa2" stroke-width="2" />
  <text x="495" y="345" font-family="Arial" font-size="12" text-anchor="middle">Evolution Governance</text>
  <text x="495" y="360" font-family="Arial" font-size="12" text-anchor="middle">Framework</text>
  
  <rect x="590" y="320" width="150" height="50" rx="5" ry="5" fill="#e1bee7" stroke="#7b1fa2" stroke-width="2" />
  <text x="665" y="345" font-family="Arial" font-size="12" text-anchor="middle">Generative</text>
  <text x="665" y="360" font-family="Arial" font-size="12" text-anchor="middle">DreamLayer</text>
  
  <!-- Phase 6 Components - Row 2 -->
  <rect x="80" y="400" width="150" height="50" rx="5" ry="5" fill="#e1bee7" stroke="#7b1fa2" stroke-width="2" />
  <text x="155" y="425" font-family="Arial" font-size="12" text-anchor="middle">Multi-Level</text>
  <text x="155" y="440" font-family="Arial" font-size="12" text-anchor="middle">Purpose Alignment</text>
  
  <rect x="250" y="400" width="150" height="50" rx="5" ry="5" fill="#e1bee7" stroke="#7b1fa2" stroke-width="2" />
  <text x="325" y="425" font-family="Arial" font-size="12" text-anchor="middle">Cross-Agent</text>
  <text x="325" y="440" font-family="Arial" font-size="12" text-anchor="middle">Meta-Learning</text>
  
  <rect x="420" y="400" width="150" height="50" rx="5" ry="5" fill="#e1bee7" stroke="#7b1fa2" stroke-width="2" />
  <text x="495" y="425" font-family="Arial" font-size="12" text-anchor="middle">Human-in-the-Loop</text>
  <text x="495" y="440" font-family="Arial" font-size="12" text-anchor="middle">Integration</text>
  
  <rect x="590" y="400" width="150" height="50" rx="5" ry="5" fill="#e1bee7" stroke="#7b1fa2" stroke-width="2" />
  <text x="665" y="425" font-family="Arial" font-size="12" text-anchor="middle">Interactive</text>
  <text x="665" y="440" font-family="Arial" font-size="12" text-anchor="middle">Visualization Dashboard</text>
  
  <!-- Emergent Layer -->
  <rect x="50" y="480" width="700" height="80" rx="10" ry="10" fill="#fce4ec" stroke="#e91e63" stroke-width="2" stroke-dasharray="5,5" />
  <text x="400" y="520" font-family="Arial" font-size="18" text-anchor="middle" font-weight="bold" fill="#c2185b">Emergent Transcendent Intelligence</text>
  
  <!-- Connections from Phase 5 to Phase 6 -->
  <line x1="155" y1="230" x2="155" y2="320" stroke="#7b1fa2" stroke-width="2" />
  <line x1="325" y1="230" x2="325" y2="320" stroke="#7b1fa2" stroke-width="2" />
  <line x1="495" y1="230" x2="495" y2="320" stroke="#7b1fa2" stroke-width="2" />
  <line x1="665" y1="230" x2="665" y2="320" stroke="#7b1fa2" stroke-width="2" />
  
  <!-- Connections between Phase 6 components -->
  <!-- Row 1 horizontal connections -->
  <line x1="230" y1="345" x2="250" y2="345" stroke="#7b1fa2" stroke-width="2" />
  <line x1="400" y1="345" x2="420" y2="345" stroke="#7b1fa2" stroke-width="2" />
  <line x1="570" y1="345" x2="590" y2="345" stroke="#7b1fa2" stroke-width="2" />
  
  <!-- Row 2 horizontal connections -->
  <line x1="230" y1="425" x2="250" y2="425" stroke="#7b1fa2" stroke-width="2" />
  <line x1="400" y1="425" x2="420" y2="425" stroke="#7b1fa2" stroke-width="2" />
  <line x1="570" y1="425" x2="590" y2="425" stroke="#7b1fa2" stroke-width="2" />
  
  <!-- Vertical connections between rows -->
  <line x1="155" y1="370" x2="155" y2="400" stroke="#7b1fa2" stroke-width="2" />
  <line x1="325" y1="370" x2="325" y2="400" stroke="#7b1fa2" stroke-width="2" />
  <line x1="495" y1="370" x2="495" y2="400" stroke="#7b1fa2" stroke-width="2" />
  <line x1="665" y1="370" x2="665" y2="400" stroke="#7b1fa2" stroke-width="2" />
  
  <!-- Connections to Emergent Layer -->
  <line x1="155" y1="450" x2="155" y2="480" stroke="#e91e63" stroke-width="2" stroke-dasharray="5,5" />
  <line x1="325" y1="450" x2="325" y2="480" stroke="#e91e63" stroke-width="2" stroke-dasharray="5,5" />
  <line x1="495" y1="450" x2="495" y2="480" stroke="#e91e63" stroke-width="2" stroke-dasharray="5,5" />
  <line x1="665" y1="450" x2="665" y2="480" stroke="#e91e63" stroke-width="2" stroke-dasharray="5,5" />
  
  <!-- Core Principles -->
  <rect x="50" y="590" width="700" height="80" rx="10" ry="10" fill="#fff3e0" stroke="#ff9800" stroke-width="2" />
  <text x="400" y="615" font-family="Arial" font-size="16" text-anchor="middle" font-weight="bold">Core Principles</text>
  
  <text x="160" y="645" font-family="Arial" font-size="12" text-anchor="middle">Emergent Consciousness</text>
  <text x="320" y="645" font-family="Arial" font-size="12" text-anchor="middle">Ethical Self-Governance</text>
  <text x="480" y="645" font-family="Arial" font-size="12" text-anchor="middle">Dynamic Adaptation</text>
  <text x="640" y="645" font-family="Arial" font-size="12" text-anchor="middle">Collective Wisdom</text>
  
  <!-- Connections from Emergent Layer to Principles -->
  <line x1="400" y1="560" x2="400" y2="590" stroke="#ff9800" stroke-width="2" />
  
  <!-- Legend -->
  <rect x="50" y="680" width="15" height="15" fill="#bbdefb" stroke="#1976d2" stroke-width="2" />
  <text x="75" y="692" font-family="Arial" font-size="10">Phase 5 Components</text>
  
  <rect x="200" y="680" width="15" height="15" fill="#e1bee7" stroke="#7b1fa2" stroke-width="2" />
  <text x="225" y="692" font-family="Arial" font-size="10">Phase 6 Components</text>
  
  <rect x="350" y="680" width="15" height="15" fill="#fce4ec" stroke="#e91e63" stroke-width="2" stroke-dasharray="5,5" />
  <text x="375" y="692" font-family="Arial" font-size="10">Emergent Intelligence</text>
  
  <rect x="500" y="680" width="15" height="15" fill="#fff3e0" stroke="#ff9800" stroke-width="2" />
  <text x="525" y="692" font-family="Arial" font-size="10">Core Principles</text>
  
  <line x1="600" y1="687" x2="630" y2="687" stroke="#7b1fa2" stroke-width="2" />
  <text x="655" y="692" font-family="Arial" font-size="10">Direct Connection</text>
  
  <line x1="700" y1="687" x2="730" y2="687" stroke="#e91e63" stroke-width="2" stroke-dasharray="5,5" />
  <text x="755" y="692" font-family="Arial" font-size="10">Emergent Connection</text>
</svg>