<svg xmlns="http://www.w3.org/2000/svg" width="800" height="600" viewBox="0 0 800 600">
  <!-- Background -->
  <rect width="800" height="600" fill="#f8f9fa" />
  
  <!-- Title -->
  <text x="400" y="30" font-family="Arial" font-size="24" text-anchor="middle" font-weight="bold">CODESIG Phase 5 Architecture</text>
  
  <!-- Core CODESIG Components -->
  <rect x="50" y="70" width="700" height="80" rx="10" ry="10" fill="#e3f2fd" stroke="#2196f3" stroke-width="2" />
  <text x="400" y="110" font-family="Arial" font-size="18" text-anchor="middle" font-weight="bold">CODESIG Integration</text>
  
  <!-- Core Components -->
  <rect x="80" y="180" width="200" height="60" rx="5" ry="5" fill="#bbdefb" stroke="#1976d2" stroke-width="2" />
  <text x="180" y="215" font-family="Arial" font-size="14" text-anchor="middle">SoulFrameManager</text>
  
  <rect x="300" y="180" width="200" height="60" rx="5" ry="5" fill="#bbdefb" stroke="#1976d2" stroke-width="2" />
  <text x="400" y="215" font-family="Arial" font-size="14" text-anchor="middle">Enhanced Memory</text>
  <text x="400" y="235" font-family="Arial" font-size="14" text-anchor="middle">Consolidation Engine</text>
  
  <rect x="520" y="180" width="200" height="60" rx="5" ry="5" fill="#bbdefb" stroke="#1976d2" stroke-width="2" />
  <text x="620" y="215" font-family="Arial" font-size="14" text-anchor="middle">Codalogue Protocol Ledger</text>
  
  <!-- Phase 5 Container -->
  <rect x="50" y="270" width="700" height="300" rx="10" ry="10" fill="#e8f5e9" stroke="#4caf50" stroke-width="2" />
  <text x="400" y="300" font-family="Arial" font-size="18" text-anchor="middle" font-weight="bold">CODESIG Phase 5</text>
  
  <!-- Phase 5 Components - Row 1 -->
  <rect x="80" y="330" width="200" height="60" rx="5" ry="5" fill="#c8e6c9" stroke="#388e3c" stroke-width="2" />
  <text x="180" y="365" font-family="Arial" font-size="14" text-anchor="middle">SoulWeaver Protocol</text>
  
  <rect x="300" y="330" width="200" height="60" rx="5" ry="5" fill="#c8e6c9" stroke="#388e3c" stroke-width="2" />
  <text x="400" y="365" font-family="Arial" font-size="14" text-anchor="middle">Codalogue Observer Agent</text>
  
  <rect x="520" y="330" width="200" height="60" rx="5" ry="5" fill="#c8e6c9" stroke="#388e3c" stroke-width="2" />
  <text x="620" y="365" font-family="Arial" font-size="14" text-anchor="middle">Evolution Proposal Pipeline</text>
  
  <!-- Phase 5 Components - Row 2 -->
  <rect x="80" y="420" width="200" height="60" rx="5" ry="5" fill="#c8e6c9" stroke="#388e3c" stroke-width="2" />
  <text x="180" y="455" font-family="Arial" font-size="14" text-anchor="middle">Emotional Resonance Index</text>
  
  <rect x="300" y="420" width="200" height="60" rx="5" ry="5" fill="#c8e6c9" stroke="#388e3c" stroke-width="2" />
  <text x="400" y="455" font-family="Arial" font-size="14" text-anchor="middle">Purpose Alignment Engine</text>
  
  <rect x="520" y="420" width="200" height="60" rx="5" ry="5" fill="#c8e6c9" stroke="#388e3c" stroke-width="2" />
  <text x="620" y="455" font-family="Arial" font-size="14" text-anchor="middle">DreamLayer Substrate</text>
  
  <!-- Connections from Core to Phase 5 -->
  <line x1="180" y1="240" x2="180" y2="270" stroke="#1976d2" stroke-width="2" />
  <line x1="400" y1="240" x2="400" y2="270" stroke="#1976d2" stroke-width="2" />
  <line x1="620" y1="240" x2="620" y2="270" stroke="#1976d2" stroke-width="2" />
  
  <!-- Connections between Phase 5 components -->
  <!-- SoulWeaver to Emotional Resonance -->
  <line x1="180" y1="390" x2="180" y2="420" stroke="#388e3c" stroke-width="2" />
  
  <!-- Observer to Purpose Alignment -->
  <line x1="400" y1="390" x2="400" y2="420" stroke="#388e3c" stroke-width="2" />
  
  <!-- Evolution Pipeline to DreamLayer -->
  <line x1="620" y1="390" x2="620" y2="420" stroke="#388e3c" stroke-width="2" />
  
  <!-- Horizontal connections -->
  <line x1="280" y1="360" x2="300" y2="360" stroke="#388e3c" stroke-width="2" />
  <line x1="500" y1="360" x2="520" y2="360" stroke="#388e3c" stroke-width="2" />
  <line x1="280" y1="450" x2="300" y2="450" stroke="#388e3c" stroke-width="2" />
  <line x1="500" y1="450" x2="520" y2="450" stroke="#388e3c" stroke-width="2" />
  
  <!-- Legend -->
  <rect x="50" y="510" width="20" height="20" fill="#bbdefb" stroke="#1976d2" stroke-width="2" />
  <text x="80" y="525" font-family="Arial" font-size="12">Core CODESIG Components</text>
  
  <rect x="250" y="510" width="20" height="20" fill="#c8e6c9" stroke="#388e3c" stroke-width="2" />
  <text x="280" y="525" font-family="Arial" font-size="12">Phase 5 Components</text>
  
  <line x1="450" y1="520" x2="490" y2="520" stroke="#1976d2" stroke-width="2" />
  <text x="500" y="525" font-family="Arial" font-size="12">Core Connections</text>
  
  <line x1="620" y1="520" x2="660" y2="520" stroke="#388e3c" stroke-width="2" />
  <text x="670" y="525" font-family="Arial" font-size="12">Phase 5 Connections</text>
  
  <!-- Footer -->
  <text x="400" y="570" font-family="Arial" font-size="12" text-anchor="middle">EchoForge CODESIG - Codalism Design, Evolution, and Synthesis Intelligence Gateway</text>
</svg>